<svg width="299" height="26" viewBox="0 0 299 26" fill="none" xmlns="http://www.w3.org/2000/svg">
<path d="M12.344 25.608C10.232 25.608 8.41867 25.2453 6.904 24.52C5.38933 23.7733 4.152 22.8027 3.192 21.608C2.232 20.392 1.51733 19.0907 1.048 17.704C0.6 16.296 0.376 14.9307 0.376 13.608V12.904C0.376 11.4533 0.610667 10.024 1.08 8.616C1.54933 7.18667 2.264 5.896 3.224 4.744C4.20533 3.592 5.432 2.67467 6.904 1.992C8.39733 1.288 10.1573 0.935999 12.184 0.935999C14.296 0.935999 16.1627 1.33067 17.784 2.12C19.4053 2.90933 20.696 4.008 21.656 5.416C22.6373 6.80267 23.2133 8.43467 23.384 10.312H18.104C17.9547 9.37333 17.6133 8.57333 17.08 7.912C16.5467 7.25067 15.8533 6.73867 15 6.376C14.168 6.01333 13.2293 5.832 12.184 5.832C11.1387 5.832 10.2107 6.01333 9.4 6.376C8.58933 6.73867 7.90667 7.25067 7.352 7.912C6.81867 8.57333 6.40267 9.36267 6.104 10.28C5.82667 11.176 5.688 12.1787 5.688 13.288C5.688 14.376 5.82667 15.3787 6.104 16.296C6.40267 17.192 6.82933 17.9813 7.384 18.664C7.96 19.3253 8.664 19.8373 9.496 20.2C10.328 20.5413 11.2773 20.712 12.344 20.712C13.9653 20.712 15.3307 20.3173 16.44 19.528C17.5707 18.7387 18.2533 17.6507 18.488 16.264H23.736C23.544 17.9707 22.968 19.5387 22.008 20.968C21.0693 22.376 19.7787 23.5067 18.136 24.36C16.5147 25.192 14.584 25.608 12.344 25.608ZM26.9298 25V7.464H30.9938V14.984H30.8978C30.8978 12.5093 31.4204 10.6 32.4658 9.256C33.5324 7.912 35.0684 7.24 37.0738 7.24H37.7458V11.656H36.4658C35.0578 11.656 33.9698 12.04 33.2018 12.808C32.4338 13.5547 32.0498 14.6427 32.0498 16.072V25H26.9298ZM48.3368 25.608C46.8434 25.608 45.5208 25.352 44.3688 24.84C43.2381 24.328 42.2888 23.6453 41.5208 22.792C40.7741 21.9173 40.1981 20.9467 39.7928 19.88C39.4088 18.792 39.2168 17.6827 39.2168 16.552V15.912C39.2168 14.7387 39.4088 13.6187 39.7928 12.552C40.1981 11.464 40.7741 10.4933 41.5208 9.64C42.2674 8.78667 43.1954 8.11467 44.3048 7.624C45.4354 7.112 46.7154 6.856 48.1448 6.856C50.0221 6.856 51.6008 7.28267 52.8808 8.136C54.1821 8.968 55.1741 10.0667 55.8568 11.432C56.5394 12.776 56.8808 14.248 56.8808 15.848V17.576H41.3608V14.664H53.7768L52.1128 16.008C52.1128 14.9627 51.9634 14.0667 51.6648 13.32C51.3661 12.5733 50.9181 12.008 50.3208 11.624C49.7448 11.2187 49.0194 11.016 48.1448 11.016C47.2488 11.016 46.4914 11.2187 45.8728 11.624C45.2541 12.0293 44.7848 12.6267 44.4648 13.416C44.1448 14.184 43.9848 15.1333 43.9848 16.264C43.9848 17.3093 44.1341 18.2267 44.4328 19.016C44.7314 19.784 45.2008 20.3813 45.8408 20.808C46.4808 21.2347 47.3128 21.448 48.3368 21.448C49.2754 21.448 50.0434 21.2667 50.6408 20.904C51.2381 20.5413 51.6434 20.0933 51.8568 19.56H56.5608C56.3048 20.7333 55.8034 21.7787 55.0568 22.696C54.3101 23.6133 53.3714 24.328 52.2408 24.84C51.1101 25.352 49.8088 25.608 48.3368 25.608ZM70.8655 25V19.816H70.0015V14.184C70.0015 13.288 69.7882 12.616 69.3615 12.168C68.9348 11.72 68.2522 11.496 67.3135 11.496C66.8442 11.496 66.2255 11.5067 65.4575 11.528C64.6895 11.5493 63.9002 11.5813 63.0895 11.624C62.2788 11.6667 61.5428 11.7093 60.8815 11.752V7.432C61.3722 7.38933 61.9482 7.34667 62.6095 7.304C63.2708 7.26133 63.9535 7.22933 64.6575 7.208C65.3615 7.18667 66.0228 7.176 66.6415 7.176C68.4335 7.176 69.9375 7.432 71.1535 7.944C72.3908 8.456 73.3295 9.23467 73.9695 10.28C74.6095 11.304 74.9295 12.6267 74.9295 14.248V25H70.8655ZM65.2655 25.448C64.0068 25.448 62.8975 25.224 61.9375 24.776C60.9988 24.328 60.2628 23.688 59.7295 22.856C59.1962 22.0027 58.9295 20.9893 58.9295 19.816C58.9295 18.536 59.2602 17.4907 59.9215 16.68C60.5828 15.848 61.5108 15.24 62.7055 14.856C63.9002 14.4507 65.2762 14.248 66.8335 14.248H70.5775V17.096H66.8015C65.9055 17.096 65.2122 17.32 64.7215 17.768C64.2522 18.1947 64.0175 18.7813 64.0175 19.528C64.0175 20.232 64.2522 20.808 64.7215 21.256C65.2122 21.6827 65.9055 21.896 66.8015 21.896C67.3775 21.896 67.8895 21.8 68.3375 21.608C68.8068 21.3947 69.1908 21.0427 69.4895 20.552C69.7882 20.0613 69.9588 19.3787 70.0015 18.504L71.2175 19.784C71.1108 21 70.8122 22.024 70.3215 22.856C69.8522 23.688 69.1908 24.328 68.3375 24.776C67.5055 25.224 66.4815 25.448 65.2655 25.448ZM87.2415 25.224C85.4708 25.224 84.0415 25.0107 82.9535 24.584C81.8655 24.136 81.0655 23.4 80.5535 22.376C80.0628 21.3307 79.8175 19.9227 79.8175 18.152V2.728H84.5855V18.344C84.5855 19.176 84.7988 19.816 85.2255 20.264C85.6735 20.6907 86.3028 20.904 87.1135 20.904H89.7055V25.224H87.2415ZM77.1615 11.208V7.464H89.7055V11.208H77.1615ZM101.118 25.608C99.6247 25.608 98.302 25.352 97.15 24.84C96.0193 24.328 95.07 23.6453 94.302 22.792C93.5553 21.9173 92.9793 20.9467 92.574 19.88C92.19 18.792 91.998 17.6827 91.998 16.552V15.912C91.998 14.7387 92.19 13.6187 92.574 12.552C92.9793 11.464 93.5553 10.4933 94.302 9.64C95.0487 8.78667 95.9767 8.11467 97.086 7.624C98.2167 7.112 99.4967 6.856 100.926 6.856C102.803 6.856 104.382 7.28267 105.662 8.136C106.963 8.968 107.955 10.0667 108.638 11.432C109.321 12.776 109.662 14.248 109.662 15.848V17.576H94.142V14.664H106.558L104.894 16.008C104.894 14.9627 104.745 14.0667 104.446 13.32C104.147 12.5733 103.699 12.008 103.102 11.624C102.526 11.2187 101.801 11.016 100.926 11.016C100.03 11.016 99.2727 11.2187 98.654 11.624C98.0353 12.0293 97.566 12.6267 97.246 13.416C96.926 14.184 96.766 15.1333 96.766 16.264C96.766 17.3093 96.9153 18.2267 97.214 19.016C97.5127 19.784 97.982 20.3813 98.622 20.808C99.262 21.2347 100.094 21.448 101.118 21.448C102.057 21.448 102.825 21.2667 103.422 20.904C104.019 20.5413 104.425 20.0933 104.638 19.56H109.342C109.086 20.7333 108.585 21.7787 107.838 22.696C107.091 23.6133 106.153 24.328 105.022 24.84C103.891 25.352 102.59 25.608 101.118 25.608ZM130.366 25V19.816H129.502V14.184C129.502 13.288 129.288 12.616 128.862 12.168C128.435 11.72 127.752 11.496 126.814 11.496C126.344 11.496 125.726 11.5067 124.958 11.528C124.19 11.5493 123.4 11.5813 122.59 11.624C121.779 11.6667 121.043 11.7093 120.382 11.752V7.432C120.872 7.38933 121.448 7.34667 122.11 7.304C122.771 7.26133 123.454 7.22933 124.158 7.208C124.862 7.18667 125.523 7.176 126.142 7.176C127.934 7.176 129.438 7.432 130.654 7.944C131.891 8.456 132.83 9.23467 133.47 10.28C134.11 11.304 134.43 12.6267 134.43 14.248V25H130.366ZM124.766 25.448C123.507 25.448 122.398 25.224 121.438 24.776C120.499 24.328 119.763 23.688 119.23 22.856C118.696 22.0027 118.43 20.9893 118.43 19.816C118.43 18.536 118.76 17.4907 119.422 16.68C120.083 15.848 121.011 15.24 122.206 14.856C123.4 14.4507 124.776 14.248 126.334 14.248H130.078V17.096H126.302C125.406 17.096 124.712 17.32 124.222 17.768C123.752 18.1947 123.518 18.7813 123.518 19.528C123.518 20.232 123.752 20.808 124.222 21.256C124.712 21.6827 125.406 21.896 126.302 21.896C126.878 21.896 127.39 21.8 127.838 21.608C128.307 21.3947 128.691 21.0427 128.99 20.552C129.288 20.0613 129.459 19.3787 129.502 18.504L130.718 19.784C130.611 21 130.312 22.024 129.822 22.856C129.352 23.688 128.691 24.328 127.838 24.776C127.006 25.224 125.982 25.448 124.766 25.448ZM138.774 25V7.464H142.838V14.984H142.55C142.55 13.192 142.774 11.6987 143.222 10.504C143.691 9.30933 144.395 8.41333 145.334 7.816C146.272 7.21867 147.414 6.92 148.758 6.92H148.982C151.03 6.92 152.587 7.592 153.654 8.936C154.742 10.2587 155.286 12.2747 155.286 14.984V25H150.166V14.696C150.166 13.7573 149.888 12.9893 149.334 12.392C148.779 11.7947 148.032 11.496 147.094 11.496C146.134 11.496 145.355 11.8053 144.758 12.424C144.182 13.0213 143.894 13.8107 143.894 14.792V25H138.774ZM176.959 25V19.816H176.095V14.184C176.095 13.288 175.882 12.616 175.455 12.168C175.029 11.72 174.346 11.496 173.407 11.496C172.938 11.496 172.319 11.5067 171.551 11.528C170.783 11.5493 169.994 11.5813 169.183 11.624C168.373 11.6667 167.637 11.7093 166.975 11.752V7.432C167.466 7.38933 168.042 7.34667 168.703 7.304C169.365 7.26133 170.047 7.22933 170.751 7.208C171.455 7.18667 172.117 7.176 172.735 7.176C174.527 7.176 176.031 7.432 177.247 7.944C178.485 8.456 179.423 9.23467 180.063 10.28C180.703 11.304 181.023 12.6267 181.023 14.248V25H176.959ZM171.359 25.448C170.101 25.448 168.991 25.224 168.031 24.776C167.093 24.328 166.357 23.688 165.823 22.856C165.29 22.0027 165.023 20.9893 165.023 19.816C165.023 18.536 165.354 17.4907 166.015 16.68C166.677 15.848 167.605 15.24 168.799 14.856C169.994 14.4507 171.37 14.248 172.927 14.248H176.671V17.096H172.895C171.999 17.096 171.306 17.32 170.815 17.768C170.346 18.1947 170.111 18.7813 170.111 19.528C170.111 20.232 170.346 20.808 170.815 21.256C171.306 21.6827 171.999 21.896 172.895 21.896C173.471 21.896 173.983 21.8 174.431 21.608C174.901 21.3947 175.285 21.0427 175.583 20.552C175.882 20.0613 176.053 19.3787 176.095 18.504L177.311 19.784C177.205 21 176.906 22.024 176.415 22.856C175.946 23.688 175.285 24.328 174.431 24.776C173.599 25.224 172.575 25.448 171.359 25.448ZM193.239 25.608C191.725 25.608 190.402 25.3627 189.271 24.872C188.162 24.36 187.234 23.6773 186.487 22.824C185.741 21.9707 185.186 21.0107 184.823 19.944C184.461 18.856 184.279 17.736 184.279 16.584V15.976C184.279 14.7813 184.471 13.64 184.855 12.552C185.239 11.4427 185.805 10.4613 186.551 9.608C187.298 8.75467 188.226 8.08267 189.335 7.592C190.466 7.10133 191.757 6.856 193.207 6.856C194.786 6.856 196.183 7.16533 197.399 7.784C198.615 8.38133 199.586 9.224 200.311 10.312C201.037 11.4 201.442 12.648 201.527 14.056H196.503C196.418 13.2667 196.098 12.6053 195.543 12.072C195.01 11.5173 194.231 11.24 193.207 11.24C192.354 11.24 191.639 11.4533 191.063 11.88C190.509 12.3067 190.093 12.8933 189.815 13.64C189.538 14.3867 189.399 15.272 189.399 16.296C189.399 17.2347 189.527 18.088 189.783 18.856C190.039 19.6027 190.445 20.1893 190.999 20.616C191.575 21.0213 192.322 21.224 193.239 21.224C193.922 21.224 194.498 21.1067 194.967 20.872C195.458 20.616 195.842 20.2747 196.119 19.848C196.418 19.4 196.599 18.888 196.663 18.312H201.655C201.591 19.7627 201.186 21.0427 200.439 22.152C199.693 23.24 198.701 24.0933 197.463 24.712C196.226 25.3093 194.818 25.608 193.239 25.608ZM212.802 25.608C211.287 25.608 209.964 25.3627 208.834 24.872C207.724 24.36 206.796 23.6773 206.05 22.824C205.303 21.9707 204.748 21.0107 204.386 19.944C204.023 18.856 203.842 17.736 203.842 16.584V15.976C203.842 14.7813 204.034 13.64 204.418 12.552C204.802 11.4427 205.367 10.4613 206.114 9.608C206.86 8.75467 207.788 8.08267 208.898 7.592C210.028 7.10133 211.319 6.856 212.77 6.856C214.348 6.856 215.746 7.16533 216.962 7.784C218.178 8.38133 219.148 9.224 219.874 10.312C220.599 11.4 221.004 12.648 221.09 14.056H216.066C215.98 13.2667 215.66 12.6053 215.106 12.072C214.572 11.5173 213.794 11.24 212.77 11.24C211.916 11.24 211.202 11.4533 210.626 11.88C210.071 12.3067 209.655 12.8933 209.378 13.64C209.1 14.3867 208.962 15.272 208.962 16.296C208.962 17.2347 209.09 18.088 209.346 18.856C209.602 19.6027 210.007 20.1893 210.562 20.616C211.138 21.0213 211.884 21.224 212.802 21.224C213.484 21.224 214.06 21.1067 214.53 20.872C215.02 20.616 215.404 20.2747 215.682 19.848C215.98 19.4 216.162 18.888 216.226 18.312H221.218C221.154 19.7627 220.748 21.0427 220.002 22.152C219.255 23.24 218.263 24.0933 217.026 24.712C215.788 25.3093 214.38 25.608 212.802 25.608ZM233.036 25.608C231.5 25.608 230.135 25.3733 228.94 24.904C227.746 24.4133 226.732 23.752 225.9 22.92C225.09 22.088 224.471 21.1387 224.044 20.072C223.618 18.984 223.404 17.8427 223.404 16.648V15.912C223.404 14.696 223.618 13.544 224.044 12.456C224.492 11.3467 225.132 10.376 225.964 9.544C226.818 8.712 227.842 8.06133 229.036 7.592C230.231 7.10133 231.564 6.856 233.036 6.856C234.551 6.856 235.895 7.10133 237.068 7.592C238.263 8.06133 239.276 8.712 240.108 9.544C240.94 10.376 241.58 11.3467 242.028 12.456C242.476 13.544 242.7 14.696 242.7 15.912V16.648C242.7 17.8427 242.487 18.984 242.06 20.072C241.634 21.1387 241.004 22.088 240.172 22.92C239.362 23.752 238.359 24.4133 237.164 24.904C235.97 25.3733 234.594 25.608 233.036 25.608ZM233.036 21.288C234.039 21.288 234.871 21.0747 235.532 20.648C236.194 20.2213 236.695 19.624 237.036 18.856C237.399 18.088 237.58 17.2347 237.58 16.296C237.58 15.2933 237.399 14.4187 237.036 13.672C236.674 12.904 236.151 12.296 235.468 11.848C234.807 11.4 233.996 11.176 233.036 11.176C232.098 11.176 231.287 11.4 230.604 11.848C229.922 12.296 229.399 12.904 229.036 13.672C228.695 14.4187 228.524 15.2933 228.524 16.296C228.524 17.2347 228.695 18.088 229.036 18.856C229.378 19.624 229.89 20.2213 230.572 20.648C231.255 21.0747 232.076 21.288 233.036 21.288ZM252.194 25.544C250.167 25.544 248.61 24.8933 247.522 23.592C246.434 22.2693 245.89 20.2853 245.89 17.64V7.464H251.01V17.896C251.01 18.8347 251.276 19.5813 251.81 20.136C252.343 20.6907 253.058 20.968 253.954 20.968C254.871 20.968 255.618 20.68 256.194 20.104C256.77 19.528 257.058 18.7493 257.058 17.768V7.464H262.178V25H258.114V17.608H258.466C258.466 19.3787 258.231 20.8613 257.762 22.056C257.314 23.2293 256.642 24.104 255.746 24.68C254.85 25.256 253.74 25.544 252.418 25.544H252.194ZM266.899 25V7.464H270.963V14.984H270.675C270.675 13.192 270.899 11.6987 271.347 10.504C271.816 9.30933 272.52 8.41333 273.459 7.816C274.397 7.21867 275.539 6.92 276.883 6.92H277.107C279.155 6.92 280.712 7.592 281.779 8.936C282.867 10.2587 283.411 12.2747 283.411 14.984V25H278.291V14.696C278.291 13.7573 278.013 12.9893 277.459 12.392C276.904 11.7947 276.157 11.496 275.219 11.496C274.259 11.496 273.48 11.8053 272.883 12.424C272.307 13.0213 272.019 13.8107 272.019 14.792V25H266.899ZM295.742 25.224C293.971 25.224 292.542 25.0107 291.454 24.584C290.366 24.136 289.566 23.4 289.054 22.376C288.563 21.3307 288.318 19.9227 288.318 18.152V2.728H293.086V18.344C293.086 19.176 293.299 19.816 293.726 20.264C294.174 20.6907 294.803 20.904 295.614 20.904H298.206V25.224H295.742ZM285.662 11.208V7.464H298.206V11.208H285.662Z" fill="#45AF99"/>
</svg>
