<svg width="46" height="13" viewBox="0 0 46 13" fill="none" xmlns="http://www.w3.org/2000/svg">
<path d="M0.888 10V1.24H3.048V10H0.888ZM2.808 10V8.176H6.504V10H2.808ZM2.808 6.46V4.636H6.252V6.46H2.808ZM2.808 3.064V1.24H6.432V3.064H2.808ZM7.89356 10V3.376H9.62156V6.22H9.52556C9.52556 5.532 9.61356 4.964 9.78956 4.516C9.96556 4.06 10.2256 3.72 10.5696 3.496C10.9216 3.272 11.3456 3.16 11.8416 3.16H11.9376C12.6896 3.16 13.2696 3.412 13.6776 3.916C14.0936 4.412 14.3016 5.176 14.3016 6.208V10H12.1176V6.148C12.1176 5.844 12.0256 5.596 11.8416 5.404C11.6656 5.204 11.4216 5.104 11.1096 5.104C10.7976 5.104 10.5456 5.204 10.3536 5.404C10.1696 5.596 10.0776 5.852 10.0776 6.172V10H7.89356ZM18.4206 12.652C18.0926 12.652 17.7526 12.64 17.4006 12.616C17.0566 12.592 16.7446 12.56 16.4646 12.52V10.696C16.7446 10.728 17.0566 10.756 17.4006 10.78C17.7446 10.812 18.0606 10.828 18.3486 10.828C18.8446 10.828 19.2486 10.776 19.5606 10.672C19.8806 10.568 20.1166 10.408 20.2686 10.192C20.4206 9.976 20.4966 9.7 20.4966 9.364V8.02L20.8326 7.3C20.8166 7.86 20.7086 8.348 20.5086 8.764C20.3086 9.172 20.0206 9.488 19.6446 9.712C19.2766 9.936 18.8286 10.048 18.3006 10.048C17.8526 10.048 17.4486 9.968 17.0886 9.808C16.7286 9.648 16.4206 9.424 16.1646 9.136C15.9166 8.84 15.7246 8.492 15.5886 8.092C15.4526 7.692 15.3846 7.256 15.3846 6.784V6.496C15.3846 6.024 15.4566 5.588 15.6006 5.188C15.7446 4.78 15.9526 4.428 16.2246 4.132C16.4966 3.828 16.8166 3.596 17.1846 3.436C17.5606 3.268 17.9766 3.184 18.4326 3.184C18.9606 3.184 19.4166 3.304 19.8006 3.544C20.1846 3.776 20.4846 4.116 20.7006 4.564C20.9166 5.012 21.0326 5.556 21.0486 6.196L20.8086 6.28V3.376H22.5366V9.22C22.5366 10.036 22.3846 10.696 22.0806 11.2C21.7766 11.704 21.3166 12.072 20.7006 12.304C20.0926 12.536 19.3326 12.652 18.4206 12.652ZM19.0326 8.248C19.2966 8.248 19.5326 8.188 19.7406 8.068C19.9566 7.948 20.1286 7.776 20.2566 7.552C20.3846 7.32 20.4486 7.044 20.4486 6.724V6.436C20.4486 6.124 20.3806 5.86 20.2446 5.644C20.1166 5.428 19.9446 5.264 19.7286 5.152C19.5126 5.04 19.2806 4.984 19.0326 4.984C18.7446 4.984 18.4886 5.052 18.2646 5.188C18.0486 5.324 17.8766 5.516 17.7486 5.764C17.6286 6.012 17.5686 6.304 17.5686 6.64C17.5686 6.976 17.6286 7.264 17.7486 7.504C17.8766 7.744 18.0486 7.928 18.2646 8.056C18.4886 8.184 18.7446 8.248 19.0326 8.248ZM24.1497 10V1.24H26.3337V10H24.1497ZM23.4057 2.824V1.24H26.3337V2.824H23.4057ZM28.2563 10V3.376H30.4403V10H28.2563ZM27.4163 4.96V3.376H30.4403V4.96H27.4163ZM29.1563 2.848C28.7563 2.848 28.4603 2.748 28.2683 2.548C28.0843 2.34 27.9923 2.076 27.9923 1.756C27.9923 1.436 28.0843 1.176 28.2683 0.976C28.4603 0.767999 28.7523 0.663999 29.1443 0.663999C29.5443 0.663999 29.8363 0.767999 30.0203 0.976C30.2043 1.176 30.2963 1.436 30.2963 1.756C30.2963 2.076 30.2043 2.34 30.0203 2.548C29.8363 2.748 29.5483 2.848 29.1563 2.848ZM34.6739 10.216C33.7139 10.216 32.9579 10.02 32.4059 9.628C31.8539 9.228 31.5579 8.668 31.5179 7.948H33.4379C33.4699 8.148 33.5939 8.32 33.8099 8.464C34.0259 8.608 34.3299 8.68 34.7219 8.68C35.0019 8.68 35.2419 8.64 35.4419 8.56C35.6499 8.472 35.7539 8.332 35.7539 8.14C35.7539 7.972 35.6739 7.836 35.5139 7.732C35.3539 7.62 35.0619 7.544 34.6379 7.504L34.1819 7.456C33.3339 7.368 32.7099 7.136 32.3099 6.76C31.9099 6.384 31.7099 5.912 31.7099 5.344C31.7099 4.856 31.8299 4.456 32.0699 4.144C32.3099 3.824 32.6419 3.584 33.0659 3.424C33.4899 3.264 33.9739 3.184 34.5179 3.184C35.4059 3.184 36.1219 3.38 36.6659 3.772C37.2099 4.156 37.4979 4.712 37.5299 5.44H35.6099C35.5779 5.24 35.4699 5.072 35.2859 4.936C35.1019 4.792 34.8379 4.72 34.4939 4.72C34.2459 4.72 34.0419 4.764 33.8819 4.852C33.7299 4.94 33.6539 5.064 33.6539 5.224C33.6539 5.392 33.7259 5.516 33.8699 5.596C34.0219 5.676 34.2619 5.736 34.5899 5.776L35.0459 5.824C35.8939 5.912 36.5459 6.148 37.0019 6.532C37.4659 6.908 37.6979 7.404 37.6979 8.02C37.6979 8.476 37.5739 8.868 37.3259 9.196C37.0859 9.524 36.7379 9.776 36.2819 9.952C35.8339 10.128 35.2979 10.216 34.6739 10.216ZM38.7842 10V1.24H40.9682V6.232H40.6802C40.6802 5.56 40.7642 4.996 40.9322 4.54C41.1002 4.084 41.3442 3.74 41.6642 3.508C41.9922 3.276 42.3962 3.16 42.8762 3.16H42.9722C43.6922 3.16 44.2402 3.42 44.6162 3.94C45.0002 4.46 45.1922 5.224 45.1922 6.232V10H43.0082V6.148C43.0082 5.844 42.9162 5.596 42.7322 5.404C42.5482 5.204 42.3042 5.104 42.0002 5.104C41.6962 5.104 41.4482 5.204 41.2562 5.404C41.0642 5.596 40.9682 5.852 40.9682 6.172V10H38.7842Z" fill="#535252"/>
</svg>
