<svg width="15" height="11" viewBox="0 0 15 11" fill="none" xmlns="http://www.w3.org/2000/svg">
<path fill-rule="evenodd" clip-rule="evenodd" d="M7.33333 0.500015C4 0.500015 1.15333 2.57335 0 5.50002C1.15333 8.42669 4 10.5 7.33333 10.5C10.6666 10.5 13.5133 8.42669 14.6666 5.50002C13.5133 2.57335 10.6666 0.500015 7.33333 0.500015ZM7.33333 8.83339C5.49333 8.83339 4 7.34002 4 5.50002C4 3.66002 5.49333 2.16668 7.33333 2.16668C9.17333 2.16668 10.6666 3.66002 10.6666 5.50002C10.6666 7.34002 9.17333 8.83339 7.33333 8.83339ZM5.33333 5.50002C5.33333 4.39335 6.22666 3.50002 7.33333 3.50002C8.44 3.50002 9.33333 4.39335 9.33333 5.50002C9.33333 6.60668 8.44 7.50002 7.33333 7.50002C6.22666 7.50002 5.33333 6.60668 5.33333 5.50002Z" fill="#D7F5D4"/>
</svg>
