<svg width="95" height="10" viewBox="0 0 95 10" fill="none" xmlns="http://www.w3.org/2000/svg">
<path d="M5.418 9.668C7.182 9.668 8.54 8.954 9.548 7.848V4.138H5.04V6.252H7.14V6.98C6.804 7.26 6.104 7.54 5.418 7.54C3.892 7.54 2.814 6.364 2.814 4.838C2.814 3.312 3.892 2.136 5.418 2.136C6.328 2.136 7.042 2.71 7.392 3.326L9.408 2.276C8.764 1.114 7.504 0.00799954 5.418 0.00799954C2.632 0.00799954 0.364 1.87 0.364 4.838C0.364 7.806 2.632 9.668 5.418 9.668ZM13.0572 9.5V5.188C13.3372 4.81 14.0792 4.572 14.6392 4.572C14.8632 4.572 15.0452 4.6 15.1712 4.628V2.556C14.3592 2.556 13.5052 3.018 13.0572 3.564V2.738H10.9012V9.5H13.0572ZM19.3992 9.668C20.4352 9.668 21.5552 9.374 22.2272 8.772L21.3172 7.428C20.9392 7.792 20.1132 8.002 19.6372 8.002C18.6572 8.002 18.0692 7.428 17.9432 6.798H22.7592V6.336C22.7592 4.04 21.3032 2.57 19.3012 2.57C17.1872 2.57 15.7032 4.152 15.7032 6.112C15.7032 8.31 17.3132 9.668 19.3992 9.668ZM20.7012 5.398H17.9152C17.9992 4.908 18.3632 4.236 19.3012 4.236C20.2952 4.236 20.6452 4.922 20.7012 5.398ZM27.0691 9.668C28.1051 9.668 29.2251 9.374 29.8971 8.772L28.9871 7.428C28.6091 7.792 27.7831 8.002 27.3071 8.002C26.3271 8.002 25.7391 7.428 25.6131 6.798H30.4291V6.336C30.4291 4.04 28.9731 2.57 26.9711 2.57C24.8571 2.57 23.3731 4.152 23.3731 6.112C23.3731 8.31 24.9831 9.668 27.0691 9.668ZM28.3711 5.398H25.5851C25.6691 4.908 26.0331 4.236 26.9711 4.236C27.9651 4.236 28.3151 4.922 28.3711 5.398ZM38.225 9.5V4.712C38.225 3.466 37.525 2.57 35.985 2.57C34.851 2.57 34.053 3.088 33.647 3.564V2.738H31.491V9.5H33.647V5.132C33.899 4.824 34.319 4.474 34.963 4.474C35.635 4.474 36.069 4.768 36.069 5.594V9.5H38.225ZM46.2019 9.5V7.792H47.3359V5.678H46.2019V0.161999H42.8559L39.3139 5.916V7.792H43.7799V9.5H46.2019ZM43.7799 5.678H41.6519L43.7799 2.262V5.678ZM53.0508 9.668C54.8148 9.668 56.1728 8.954 57.1808 7.848V4.138H52.6728V6.252H54.7728V6.98C54.4368 7.26 53.7368 7.54 53.0508 7.54C51.5248 7.54 50.4468 6.364 50.4468 4.838C50.4468 3.312 51.5248 2.136 53.0508 2.136C53.9608 2.136 54.6748 2.71 55.0248 3.326L57.0408 2.276C56.3968 1.114 55.1368 0.00799954 53.0508 0.00799954C50.2648 0.00799954 47.9968 1.87 47.9968 4.838C47.9968 7.806 50.2648 9.668 53.0508 9.668ZM60.69 9.5V5.188C60.97 4.81 61.712 4.572 62.272 4.572C62.496 4.572 62.678 4.6 62.804 4.628V2.556C61.992 2.556 61.138 3.018 60.69 3.564V2.738H58.534V9.5H60.69ZM67.018 9.668C69.342 9.668 70.714 8.016 70.714 6.112C70.714 4.208 69.342 2.57 67.018 2.57C64.722 2.57 63.336 4.208 63.336 6.112C63.336 8.016 64.722 9.668 67.018 9.668ZM67.018 7.764C66.08 7.764 65.562 7.022 65.562 6.112C65.562 5.216 66.08 4.474 67.018 4.474C67.97 4.474 68.502 5.216 68.502 6.112C68.502 7.022 67.97 7.764 67.018 7.764ZM80.1664 9.5L82.1684 2.738H79.9424L78.8644 6.882L77.5344 2.738H75.6164L74.2864 6.882L73.1944 2.738H70.9824L72.9844 9.5H75.3084L76.5684 5.314L77.8424 9.5H80.1664ZM85.4319 9.668C86.2299 9.668 86.7619 9.472 87.0279 9.22L86.6079 7.596C86.5379 7.68 86.2999 7.764 86.0619 7.764C85.6839 7.764 85.4599 7.47 85.4599 7.078V4.614H86.8319V2.738H85.4599V0.89H83.3179V2.738H82.1979V4.614H83.3179V7.68C83.3179 8.982 84.0599 9.668 85.4319 9.668ZM94.6629 9.5V4.684C94.6629 3.438 93.9629 2.57 92.4229 2.57C91.2889 2.57 90.4909 3.088 90.0849 3.564V0.161999H87.9289V9.5H90.0849V5.132C90.3369 4.824 90.7569 4.474 91.3869 4.474C92.0729 4.474 92.5069 4.74 92.5069 5.566V9.5H94.6629Z" fill="#535252"/>
</svg>
