<svg width="41" height="40" viewBox="0 0 41 40" fill="none" xmlns="http://www.w3.org/2000/svg">
<path fill-rule="evenodd" clip-rule="evenodd" d="M20.5 0C9.45999 0 0.5 8.95999 0.5 20C0.5 31.0399 9.45999 40 20.5 40C31.5399 40 40.5 31.0399 40.5 20C40.5 8.95999 31.5399 0 20.5 0ZM20.5 5.99999C23.82 5.99999 26.4999 8.68 26.4999 12C26.4999 15.32 23.82 18 20.5 18C17.18 18 14.5 15.32 14.5 12C14.5 8.68 17.18 5.99999 20.5 5.99999ZM8.49999 27.9598C11.08 31.84 15.5 34.3999 20.5 34.3999C25.5 34.3999 29.9199 31.84 32.4999 27.9598C32.4399 23.98 24.48 21.8 20.5 21.8C16.5 21.8 8.55999 23.98 8.49999 27.9598Z" fill="#45AF99"/>
</svg>
